<svg xmlns="http://www.w3.org/2000/svg" width="51" height="41" viewBox="0 0 51 41"><g transform="translate(-313 -323)"><g transform="translate(335 361.5) rotate(-90)" fill="#fff" stroke="#8d8187" stroke-width="1"><circle cx="3.5" cy="3.5" r="3.5" stroke="none"/><circle cx="3.5" cy="3.5" r="3" fill="none"/></g><g transform="translate(335 332.5) rotate(-90)" fill="#fff" stroke="#8d8187" stroke-width="1"><circle cx="3.5" cy="3.5" r="3.5" stroke="none"/><circle cx="3.5" cy="3.5" r="3" fill="none"/></g><line x2="23" transform="translate(338.5 355) rotate(-90)" fill="none" stroke="#8d8187" stroke-width="1"/><g transform="translate(313 323)" fill="#fff" stroke="#485417" stroke-width="3"><circle cx="7.5" cy="7.5" r="7.5" stroke="none"/><circle cx="7.5" cy="7.5" r="6" fill="none"/></g><g transform="translate(313 349)" fill="#fff" stroke="#385c80" stroke-width="3"><circle cx="7.5" cy="7.5" r="7.5" stroke="none"/><circle cx="7.5" cy="7.5" r="6" fill="none"/></g><g transform="translate(349 323)" fill="#fff" stroke="#385c80" stroke-width="3"><circle cx="7.5" cy="7.5" r="7.5" stroke="none"/><circle cx="7.5" cy="7.5" r="6" fill="none"/></g><g transform="translate(349 349)" fill="#fff" stroke="#485417" stroke-width="3"><circle cx="7.5" cy="7.5" r="7.5" stroke="none"/><circle cx="7.5" cy="7.5" r="6" fill="none"/></g><g transform="translate(321 340)" fill="#fff" stroke="#8d8187" stroke-width="1"><circle cx="3.5" cy="3.5" r="3.5" stroke="none"/><circle cx="3.5" cy="3.5" r="3" fill="none"/></g><g transform="translate(350 340)" fill="#fff" stroke="#8d8187" stroke-width="1"><circle cx="3.5" cy="3.5" r="3.5" stroke="none"/><circle cx="3.5" cy="3.5" r="3" fill="none"/></g><line x2="23" transform="translate(327.5 343.5)" fill="none" stroke="#8d8187" stroke-width="1"/><path d="M0,0H2.856L21.02,26H24" transform="translate(326.5 330.5)" fill="none" stroke="#485417" stroke-linecap="round" stroke-width="2"/><path d="M0,26H3.155L21.1,0H24" transform="translate(326.5 330.5)" fill="none" stroke="#385c80" stroke-linecap="round" stroke-width="2"/></g></svg>