<svg xmlns="http://www.w3.org/2000/svg" width="51" height="41" viewBox="0 0 51 41"><g transform="translate(-322 -333)"><g transform="translate(344 371.5) rotate(-90)" fill="none" stroke="#8d8187" stroke-width="1"><circle cx="3.5" cy="3.5" r="3.5" stroke="none"/><circle cx="3.5" cy="3.5" r="3" fill="none"/></g><g transform="translate(344 342.5) rotate(-90)" fill="none" stroke="#8d8187" stroke-width="1"><circle cx="3.5" cy="3.5" r="3.5" stroke="none"/><circle cx="3.5" cy="3.5" r="3" fill="none"/></g><line x2="23" transform="translate(347.5 365) rotate(-90)" fill="none" stroke="#8d8187" stroke-width="1"/><g transform="translate(322 333)" fill="none" stroke="#485417" stroke-width="3"><circle cx="7.5" cy="7.5" r="7.5" stroke="none"/><circle cx="7.5" cy="7.5" r="6" fill="none"/></g><g transform="translate(322 359)" fill="none" stroke="#385c80" stroke-width="3"><circle cx="7.5" cy="7.5" r="7.5" stroke="none"/><circle cx="7.5" cy="7.5" r="6" fill="none"/></g><g transform="translate(358 333)" fill="none" stroke="#385c80" stroke-width="3"><circle cx="7.5" cy="7.5" r="7.5" stroke="none"/><circle cx="7.5" cy="7.5" r="6" fill="none"/></g><g transform="translate(358 359)" fill="none" stroke="#485417" stroke-width="3"><circle cx="7.5" cy="7.5" r="7.5" stroke="none"/><circle cx="7.5" cy="7.5" r="6" fill="none"/></g><g transform="translate(330 350)" fill="none" stroke="#8d8187" stroke-width="1"><circle cx="3.5" cy="3.5" r="3.5" stroke="none"/><circle cx="3.5" cy="3.5" r="3" fill="none"/></g><g transform="translate(359 350)" fill="none" stroke="#8d8187" stroke-width="1"><circle cx="3.5" cy="3.5" r="3.5" stroke="none"/><circle cx="3.5" cy="3.5" r="3" fill="none"/></g><line x2="23" transform="translate(336.5 353.5)" fill="none" stroke="#8d8187" stroke-width="1"/><path d="M0,0H2.856L21.02,26H24" transform="translate(335.5 340.5)" fill="none" stroke="#485417" stroke-linecap="round" stroke-width="2"/><path d="M0,26H3.155L21.1,0H24" transform="translate(335.5 340.5)" fill="none" stroke="#385c80" stroke-linecap="round" stroke-width="2"/></g></svg>